<svg xmlns="http://www.w3.org/2000/svg"><symbol id="brachiosaurus" viewBox="0 0 256 256"><path d="M58.4 167.1a39.7 39.7 0 0 0-7.8.8v.2c0 .3.3.6.8 1a12.3 12.3 0 0 0 2 1 16.9 16.9 0 0 0 2.7 1l2.8.9 2.4.6 1.5.2H65l2.5-.4a8.5 8.5 0 0 0 2.4-.9 5 5 0 0 0 1.7-1.5 30.3 30.3 0 0 0-6.4-2.2 31.4 31.4 0 0 0-6.8-.7z"/><path d="M128-.7a128.4 128.4 0 1 0 128.3 128.4A128.3 128.3 0 0 0 128-.7zm83.7 70.8v.4a9.5 9.5 0 0 1-.1 1.4c-.1.6-.2 1.4-.3 2.1a15.5 15.5 0 0 0-.4 2.1c-.1.7-.2 1.1-.2 1.4a5.1 5.1 0 0 0-.9 1.8 11.8 11.8 0 0 0-.7 2l-.6 2a15.9 15.9 0 0 1-.7 2 30.7 30.7 0 0 1-1.7 3.1 21.1 21.1 0 0 0-1.6 3l-20.2 28a.8.8 0 0 1-.2.6l-.3.3-.3.2-.4.5a22.1 22.1 0 0 1-1.7 2.3l-2 2.9-2.3 3.3a27.9 27.9 0 0 0-1.9 3.3l-1.5 3a8 8 0 0 0-.5 2.3c0 .3-.2.6-.2.8s.2.4.2.7c-.2 0-.3.1-.3.4s.1.4.3.4v10.3a4.4 4.4 0 0 1-.2 1 3.6 3.6 0 0 0-.4 1.1 7.5 7.5 0 0 0-.6 1.3c-.1.4-.5.8-.5 1.1v1.7a.3.3 0 0 1 0 .4c-.2.2-.2.5-.4.8l-.7.8a1.1 1.1 0 0 1-.6.4v.4c0 .1.8.2.9.4s.8.4.8.5v2.8a22.5 22.5 0 0 1-.6 3.6c-.2 1.2-.6 2.3-.8 3.5s-.5 2.4-.6 3.6a19.7 19.7 0 0 0-.4 3.5c0 2.1.1 4.3.3 6.4a42.3 42.3 0 0 0 1.1 6.2 31.4 31.4 0 0 0 2.2 5.8 25.1 25.1 0 0 0 3.4 5.3l-1.3.8-1.7.7-1.7.5h-1.9l-1.1-.2-1.2-.3-.9-.2-.8-.2-.8-.2-.6-.5a1.5 1.5 0 0 1-.3-.7 28.1 28.1 0 0 0 .1-4.1 30 30 0 0 0-.3-4.3c-.1-1.5-.3-2.9-.5-4.4s-.4-2.8-.5-4.1-.1-.3-.2-.6a1.6 1.6 0 0 0-.3-.6c.1-1.1.1-2.4.1-3.7a28.4 28.4 0 0 0-.1-4.1 27.6 27.6 0 0 0-.6-4 11.6 11.6 0 0 0-1.4-3.4 3.1 3.1 0 0 0-1.5 1.8 17.3 17.3 0 0 0-.8 2.7c-.2 1-.2 2-.4 2.9a15.3 15.3 0 0 0-.9 2.4v3.8a17.6 17.6 0 0 0 0 2.3v1.4c0 2.9-.3 5.7-.1 8.4s.2 5.5.5 8.3l.4.3.9.6.8.7a1.3 1.3 0 0 1 .3.7c0 .2-.3.5-.8.8l-1.9.8-2 .9-1.3.4h-.2l-4.8-2.6a.4.4 0 0 1-.2-.5v-.6a29.9 29.9 0 0 1 0-3 30.1 30.1 0 0 0 .1-3.1 23.4 23.4 0 0 0-.3-3.8l-.6-3.8-.6-3.7c-.1-1.3-.2-2.6-.2-4s0-2.3.1-3.3l.3-2.9.6-2.8c.2-1 .4-2 .6-3.2a.8.8 0 0 0 0-.7 2.5 2.5 0 0 1-.1-.8 5.8 5.8 0 0 0-1.9.3l-1.9.5-1.9.6-2 .5-1.3.2-1.1.2c-.4 0-.7-.2-1-.1l-1.1-.2H134a46.4 46.4 0 0 1-5.3-.1h-7.8a4.3 4.3 0 0 0-2.4.8 46.8 46.8 0 0 1 0 5.3c0 1.7-.1 3.4-.1 5.1l-.3 5.2c0 1.7-.1 3.5-.1 5.2v1a8.5 8.5 0 0 0 0 1.6v2.6c0 .5.6 1.1 1.1 1.7a11.5 11.5 0 0 1 1.4 1.7 9.4 9.4 0 0 1 1.2 1.8 3.1 3.1 0 0 1 .5 1.8v.4a11.2 11.2 0 0 1-4.1.4c.1.4 0 .7-.2.8h-2.8a7.8 7.8 0 0 1-2.2-.3 4.1 4.1 0 0 1-1.9-.8 2.4 2.4 0 0 1-.7-1.9 5.7 5.7 0 0 1 .1-1.3l.3-1.3.3-1.3a7.8 7.8 0 0 0 .2-1.4 23.8 23.8 0 0 0-.3-3.9c-.2-1.2-.4-2.5-.7-3.6s-.5-2.7-.8-3.9a19.3 19.3 0 0 1-.7-4h-.5c-.2 0-.4.8-.5.9l-.4.7-.3.6c-.5.7-1 1.5-1.6 2.2l-1.5 2.3a26 26 0 0 0-1 2.5 8.1 8.1 0 0 0-.5 2.7 2.9 2.9 0 0 0 .4 1.6 7.7 7.7 0 0 0 .7 1.6l.7 1.1.4.6a1 1 0 0 1-.5.8 2.3 2.3 0 0 1-1 .4 5 5 0 0 1-1.3.3h-4.4l-1.1-.4a2.2 2.2 0 0 1-.7-.9 10.3 10.3 0 0 1-.5-1.6 10.9 10.9 0 0 1-.5-1.7 4.5 4.5 0 0 1-.3-1.6 2.8 2.8 0 0 1 .4-1.5l.9-1.7 1.1-1.5a7.4 7.4 0 0 0 .8-1.5c.9-2 1.7-4 2.5-6s1.7-3.9 2.5-5.9a3.5 3.5 0 0 1 .5-.8l.5-.7a2.5 2.5 0 0 0 .4-.7 1.5 1.5 0 0 0 .2-.9c0-.3-.1-.6-.3-.6h-1.3l-9.1 2.4a2.3 2.3 0 0 1-1.3.6l-1.8.4a4.4 4.4 0 0 0-1.6.6 1.2 1.2 0 0 0-.7 1 1.2 1.2 0 0 0 .3.9l.6.7.9.6a1.3 1.3 0 0 1 .7.6l-.4.4-1.3-.8a6.7 6.7 0 0 0-1.4-.9l-1.5-.6a3.9 3.9 0 0 0-1.5-.2 13.1 13.1 0 0 0-3.9.5l-4 1.1a27.7 27.7 0 0 1-4.1 1.2 20.1 20.1 0 0 1-4.2.5 17.7 17.7 0 0 1-3.5-.4 38.2 38.2 0 0 1-5-1.1l-5.5-1.8a32.9 32.9 0 0 1-5-2.3 13.6 13.6 0 0 1-3.7-2.7 4.1 4.1 0 0 1-1.5-3 4.5 4.5 0 0 1 1.2-3.3 5.9 5.9 0 0 1 2.8-1.6c1-.4 2.2-.1 3.5-.2s2.3.4 3.3.4h4.1a2.4 2.4 0 0 1 1.3-.3 21.5 21.5 0 0 1 2.3.2 20.6 20.6 0 0 1 2.6.3l2 .2a6 6 0 0 1 1.9.6l1.9.8 1.8.8a6.4 6.4 0 0 0 2 .3 8.8 8.8 0 0 0 4-1 47.8 47.8 0 0 0 4.2-2.6 41.6 41.6 0 0 0 3.9-3.2l3.3-2.7 1.9-1.3 1.9-1.1 1.7-1.2a6.5 6.5 0 0 0 1.5-1.8 33.5 33.5 0 0 0 2.7-4.5 33.5 33.5 0 0 1 2.7-4.5 8 8 0 0 1 1.3-1.3l1.6-1 1.6-.9 1.7-.9 3.6-2.7 3.5-2.9 3.4-3.1 3.5-2.9a19.9 19.9 0 0 1 3.8-2.2l3.9-1.9c.9-.3 1.7-.8 2.6-1.2l2.4-1.4 2.6-1.1a13.8 13.8 0 0 1 2.7-.8l22.7-3.3a10.1 10.1 0 0 0 3.5-1.1 24.6 24.6 0 0 0 3.4-2.2l3.2-2.9 2.9-3.3a39.2 39.2 0 0 0 2.7-3.3l2.4-2.8 7.8-9.1.3-.2.5-.6.6-.5.2-.3 2.1-3.3.3-.2.3-.2.4-.2.2-.2.5-.4.3-.4 1.3-1.8 1.4-1.9 1.3-2 1-1.8a11.9 11.9 0 0 0 .8-2 17.2 17.2 0 0 0 .7-2.1l.8-2.3c.3-.7 1-1.4 1-2.2v-6a5.6 5.6 0 0 0-1.1-3.2 12.8 12.8 0 0 0-2.6-2.6 12.4 12.4 0 0 0-3.4-1.8 8.5 8.5 0 0 0-3.3-.7 22 22 0 0 0-5.8.7 12.2 12.2 0 0 0-5.2 2.6 10.6 10.6 0 0 0-1.5 1.5l-1.6 1.9-1.8 2-1.8 1.9-1.9 1.3a4.1 4.1 0 0 1-1.8.5 1.6 1.6 0 0 1-1.1-.5 1.7 1.7 0 0 1-.6-1.1v-.5l.2-.5c0-.2.1-.5.1-.7s.1-.6.2-.8v-.5a4.7 4.7 0 0 0-.2-1.7l-.6-1.3a6.7 6.7 0 0 0-.6-1.2 2.8 2.8 0 0 1-.3-1.3 1.2 1.2 0 0 0 .9-.3c.2-.1.3-.4.4-.6l.5-.8.8-.6h2.9a1 1 0 0 0 .9-.4l.7-.7h.4c.1 0 .2.2.3.4s.1.3.1.4.2-.4.4-.4l.7-.4 1.1-.6 1.4-.8 1.3-.8 1.1-.7.6-.4a13.5 13.5 0 0 1 2.1-1.3l1.8-.6 2-.2h6.5a5.2 5.2 0 0 0 1.5.6l1.5.3 1.6.3 1.5.5a15.3 15.3 0 0 1 4.6 3 19.7 19.7 0 0 1 3.3 4.3 21.8 21.8 0 0 1 1.7 5.1 25 25 0 0 1 .5 5.5v2.3z"/></symbol><symbol id="micropachycephalosaurus" viewBox="0 0 256 256"><path d="M132.4 150.9c-.3 0-.4.2-.4.6h-.1a.5.5 0 0 0-.5.5c0 .4.2.6.5.6s.4-.2.4-.6h.1a.5.5 0 0 0 .5-.5c0-.4-.2-.6-.5-.6zm1.5-.8a2.4 2.4 0 0 0-.9.8h.3a2.3 2.3 0 0 0 1.1-.3 2.4 2.4 0 0 0 .9-.8h-.3a2 2 0 0 0-1.1.3zm3-2.6c-.3 0-.4.2-.4.6h-.1a.5.5 0 0 0-.5.5h-.1c-.3 0-.5.2-.5.6s.2.6.5.6.5-.2.5-.6h.1c.3 0 .4-.2.4-.6h.1c.4 0 .5-.1.5-.5s-.1-.6-.5-.6zm23.3-5.9a8.7 8.7 0 0 1-1.2 1.4 2 2 0 0 0 .8 1.1h1.1a2.3 2.3 0 0 0 1.4-.4 6.9 6.9 0 0 0 1.1-1.3l.8-1.4c.2-.6.3-1.2.5-1.2h-3.5c-.2.1-.5 1.2-1 1.8z"/><path d="M127.8 0a127.7 127.7 0 1 0 127.7 127.7A127.6 127.6 0 0 0 127.8 0zm95.8 75.7a4.2 4.2 0 0 1-1.6.4h-3.7l-5.2 1.2a18.6 18.6 0 0 0-3.7 1.6 10.7 10.7 0 0 0-2.5 2.2 10.9 10.9 0 0 0-1.8 3 40.4 40.4 0 0 0-1.5 3.9l-1.6 5.3-1.2 3.4c-.4 1.1-.9 2.2-1.3 3.2a22 22 0 0 1-1.5 3.1c-.5 1.1-1.1 2.2-1.7 3.3a29 29 0 0 1-2.7 4.1c-.9 1.2-1.9 2.5-3 3.7l-3.1 3.5c-1 1.2-2.1 2.5-3.1 3.9a11.6 11.6 0 0 0-1.4 2.7 18.6 18.6 0 0 1-1 2.5 7.6 7.6 0 0 1-1.3 2.3 6.7 6.7 0 0 1-2.5 1.6l-1.3.5-2.1.7-2 .6-1.4.4a3.3 3.3 0 0 1 .2 2.1 2 2 0 0 1-.9.9l-1.2.6a2 2 0 0 0-.9.9l-2.3 6.8a2.5 2.5 0 0 1-1 1.5 6.1 6.1 0 0 1-1.8.9 13.6 13.6 0 0 1-2 .2l-1.9-.2h-.8c-.5 0-.9.2-1.2.1s-.4-.3-.4-.9v-.3c.1-.2.2-.2.3-.3l.2-.3c.1-.1.1-.2.1-.4v-.2a28.1 28.1 0 0 0-3.5 1.7l-3.4 2-3.3 2.2a23.3 23.3 0 0 1-3.4 2l-.9.5-1.1.5-1 .8a1.6 1.6 0 0 0-.5 1.1v.5l1.8 1.7 1.9 1.7 2.1 1.6 2.1 1.3 1.8.6 2 .6 1.9.6 1.7.9a9.3 9.3 0 0 1 1.3 1.5l1.1 1.5a17.1 17.1 0 0 0 1.1 1.4 4.7 4.7 0 0 0 1.5 1.3 3.8 3.8 0 0 0 1.7.6l2.1.7a5.2 5.2 0 0 1 1.8 1 2.1 2.1 0 0 1 .8 1.7.4.4 0 0 0-.1.3v.2l-5.6 1.2a3.5 3.5 0 0 0-1.1.3 2.1 2.1 0 0 1-1.2.3h-.4l-1.2-.7-1.7-1-1.7-1-1.1-.7-.2-.3-.3-.5-.3-.5-.3-.5-2.2-4.5-1.2-.4-1.8-.8-2.2-.9-2.1-1-1.8-.8-1.1-.6-2.8-1.6a13.8 13.8 0 0 1-2.6-2.2 13.9 13.9 0 0 1-2.1-2.7 8.1 8.1 0 0 1-1-3.1l-.6.2-.6.4-.8.6-1.8 1.2-2.1 1.4-2.1 1.4-1.8 1.1-.9.5-6 3.5a24.2 24.2 0 0 0-4.6 3.5 15.4 15.4 0 0 0-3.6 4.4c-.9 1.8-.8 4-2.4 6.7v.6c-.1.2 0 .4 0 .5v.5a10.5 10.5 0 0 0 1.1 4.4 8.5 8.5 0 0 0 4.8 4l2.6 1a4.4 4.4 0 0 1 1.9 1 4.5 4.5 0 0 1 .9 2h-13.4l-.2-.4c-.1-.2-.2-.1-.4-.2h-.5l-.6-.4a2.6 2.6 0 0 1-1.2-1.5 7.9 7.9 0 0 1-.5-2.2 9 9 0 0 1 .2-2.3c0-.8.3-1.5.3-2.1V181a6.6 6.6 0 0 1 .2-1.7 18.1 18.1 0 0 0 .6-2.7c.3-1 .5-2.1.8-3.2s.5-2.2.8-3.2.5-1.9.7-2.6l.4-1.8a9.3 9.3 0 0 1 .7-2 8.2 8.2 0 0 1 .9-1.9 15.4 15.4 0 0 0 4.6-2.6 32.7 32.7 0 0 0 3.2-3.3l3-3.5a17 17 0 0 1 3.4-3.1l1.5-.7 2-.8 2.3-.9 2.2-1.2a7 7 0 0 0 1.6-1.3 2.5 2.5 0 0 0 .6-1.6v-1.3a1.7 1.7 0 0 0-.6-1.2l-.8-.3-1.2-.5-1.2-.6-.8-.3a7.3 7.3 0 0 1-2-1.3l-2.7-1.8a25.6 25.6 0 0 0-2.5-1.6 3.4 3.4 0 0 0-1.8-.6H107c-6 0-11.9-.1-17.7.1s-11.8.2-17.8.2q-6.6 0-12.9-.3c-4.2-.3-8.4-.7-12.5-1.4a84.2 84.2 0 0 1-12-3 67.1 67.1 0 0 1-11.9-5l-1.4-.8-1.6-1-1.3-1.3a2.4 2.4 0 0 1-.5-1.6 9.5 9.5 0 0 1 2.1.4l2.4 1 2.2 1 1.5.6 4.7 1.7 5.1 1.4a45.9 45.9 0 0 0 5.1 1 28.5 28.5 0 0 0 4.9.4h25.4l1.3-.2 2.5-.3 3.4-.5 3.6-.6 3.5-.7 2.7-.5 6.9-1.4 7.4-1.6c2.5-.6 4.9-1.3 7.3-2.1a50.4 50.4 0 0 0 6.6-2.8l3.9-1.8 3.8-1.6 4-1.4c1.3-.3 2.7-.7 4.2-.9h2.8l1.8-.2h1l1.9-.4 3.4-.7 4.1-.9 4-.9c1.3-.3 2.4-1 3.4-1.2s1.5-.7 1.9-.7h6.5c2.8 0 5.4.5 8 .7s5.2.5 7.9.5a10 10 0 0 0 5-1.2 19.3 19.3 0 0 0 4.6-3.5 39.2 39.2 0 0 0 3.9-5q1.8-2.9 3.3-5.7c.9-1.9 1.8-3.8 2.5-5.6l1.8-4.8c.4-1.2.8-2.4 1.1-3.5s.7-2.2 1-3.2L203 71a8.6 8.6 0 0 1 1.8-2 7.2 7.2 0 0 1 2.7-1.6 12.7 12.7 0 0 1 3.8-.8h3.1c.7 1.7 1.7.9 2.9 1.3a19.6 19.6 0 0 1 3.6 1.6 10.9 10.9 0 0 1 3 1.8 3.1 3.1 0 0 1 1.3 2.2 2 2 0 0 1-.5 1.4z"/></symbol><symbol id="velociraptor" viewBox="0 0 256 256"><path d="M127.7-.7A128.4 128.4 0 1 0 256 127.7 128.4 128.4 0 0 0 127.7-.7zm110.9 117.1h-7.4c-3.1 0-6.2-.2-9.2-.5l-9.2-.9-9.2-1c-3-.3-6.1-.5-9.3-.5a151.9 151.9 0 0 0-16.4 1 73.1 73.1 0 0 0-16 3.8l-30.8 11.1a2.4 2.4 0 0 0-1.2 1.6 17.3 17.3 0 0 0-.8 2.7c-.3 1-.5 2-.7 2.9a6 6 0 0 1-.6 2 3 3 0 0 0 1.4 1.3l2.5 1.2 2.9 1.2a24.4 24.4 0 0 1 2.8 1.4 12.9 12.9 0 0 1 2.1 1.9 4.4 4.4 0 0 1 .8 2.5 1.7 1.7 0 0 1-.5 1.2 2.7 2.7 0 0 1-1.2.9l-1.6.8a6 6 0 0 0-1.6.8l-1.3 1a2.5 2.5 0 0 0-.5 1.5 4 4 0 0 0 .8 2.6 10.8 10.8 0 0 0 2 1.6 13.6 13.6 0 0 0 2.4 1.3 9.1 9.1 0 0 1 2.1 1.8 12.5 12.5 0 0 1 2.1 3.5 23.2 23.2 0 0 1 1.3 3.7 22.6 22.6 0 0 1 .7 3.9c.2 1.3.2 2.6.3 3.9l1.3 1.4v7.2h.9l1 .2 1 .2.6.2a5.5 5.5 0 0 0 .1.9c0 .2-.1.5-.1 1a5.6 5.6 0 0 1-.4 1.2l-.6 1a1.1 1.1 0 0 1-.9.3h-5.3c-.2 0-.5-.6-1-.9l-1.5-.8a10.9 10.9 0 0 0-1.5-.8c-.6-.3-.9-.9-1.2-.9h-6.2a5.2 5.2 0 0 1 .6-3 4.9 4.9 0 0 1 1.7-1.5 8.6 8.6 0 0 1 2.1-.7l2.2-.3a5.9 5.9 0 0 0 1.6-.7 1.4 1.4 0 0 0 .7-1.3.8.8 0 0 0-.1-.4v-.3a17.8 17.8 0 0 1-.8-1.8c-.4-.7-.8-1.6-1.3-2.4a21.3 21.3 0 0 0-1.6-2.5 7.1 7.1 0 0 0-1.5-1.8 7.5 7.5 0 0 0-1.4-.8l-1.8-1a7.8 7.8 0 0 1-1.8-1.1 2.1 2.1 0 0 1-1-1.1c-.3-.8-.6-1.8-.9-2.9a31.9 31.9 0 0 0-1.1-3.3 7.8 7.8 0 0 0-1.7-2.6 4.1 4.1 0 0 0-2.9-1 20.9 20.9 0 0 0-6.1.8 26.8 26.8 0 0 0-5.8 2.2 35.4 35.4 0 0 0-5.1 3.5 24.4 24.4 0 0 0-3.9 4.6c-.1.2-.2.2-.4.2h-.1l-.2-.2-.2-.3c0-.2-.1-.4-.1-.6s-.1-.5-.2-.6-.1-.3-.1-.4h-.3a1.5 1.5 0 0 0-1.1.4l-.9 1.2a10 10 0 0 0-.8 1.4l-.9 1a3.5 3.5 0 0 1-.6-1.7 8.6 8.6 0 0 1-.1-1.7 9.2 9.2 0 0 1 .4-2.9l.9-2.8c.3-1 .6-1.6.9-2.6a15.9 15.9 0 0 0 .4-2.8h-4.9c0-1.7.2-1.8.7-2.4a4.9 4.9 0 0 1 1.6-1.6 6.7 6.7 0 0 1 2.1-.9l2.2-.3 3 .2 3 .5 2.9.4a14.2 14.2 0 0 0 2.9.2h2.4a2.6 2.6 0 0 0-1.7-1.4 10.9 10.9 0 0 0-2.6-.4l-2.7-.2c-.9-.1-1.6.1-2.2-.3l-4-2.2h-.2a17.1 17.1 0 0 0-3.2 0 11.5 11.5 0 0 1-3.2.2 8.2 8.2 0 0 1-3.1-.7l-2.6-1.4-2.7-1.4a5 5 0 0 0-2.9-.6v6.1l1.6-.2a2.4 2.4 0 0 0 1-.3l.9-.5c.4-.2.4-.4.9-.7h.7v2.8l2-.7c0 .1.2.3.2.5a4.3 4.3 0 0 0 .1.5 5.6 5.6 0 0 1-1.3 3.9 24.6 24.6 0 0 1-3.3 3 16.8 16.8 0 0 0-4.6-1.3l-4.9-.7v-7.9l-1.7.6-2.1 1a10.5 10.5 0 0 0-1.9 1.2c-.5.4-1 .8-1 1.2v6.8a17 17 0 0 0 3-.2l1.9-.6a4.7 4.7 0 0 0 1.2-.7l1.3-.2h.3a2.2 2.2 0 0 1 .3.8l.5 1.2c.1.5.3.9.4 1.3a4.6 4.6 0 0 1 .1 1 4.3 4.3 0 0 1-.4 1.9 6.9 6.9 0 0 1-1 1.9 6.5 6.5 0 0 1-1.6 1.3 3.3 3.3 0 0 1-1.9.6h-1l-3-.4a22.1 22.1 0 0 1-3.7-.8 14.2 14.2 0 0 1-3.3-1.2 2.6 2.6 0 0 1-1.4-2.1v-12c0-.1.4-.4.9-.9l1.9-1.6 2.4-2.2 2.4-2.5a21.1 21.1 0 0 0 1.8-2.7 5.4 5.4 0 0 0 .7-2.6 4.1 4.1 0 0 0-1.1-2.8 12.7 12.7 0 0 0-2.9-2.1 32.7 32.7 0 0 0-3.3-1.4l-2.5-.9-1.3-9.2c-.2-.8-.4-1.7-.7-2.7a8.6 8.6 0 0 0-1.1-2.8 5.5 5.5 0 0 0-1.8-2.2 3.9 3.9 0 0 0-2.6-.9 12.7 12.7 0 0 0-3.7.5 15.5 15.5 0 0 0-3.3 1.5l-1.6 1.1-2.6 1.5-3 1.8-3 1.7-2.5 1.7c-.8.4-1.4 1.1-1.7 1.1h-1l-1.8-.2-2-.4a4.7 4.7 0 0 1-1.4-.8c-.5-.3-.4-.8-.4-1.4v-1.8c0-.7-.2-1 .1-1h1.5v-.4c.1-.3.1-.6.2-.9s.1-.6.2-.8v-.5a2.4 2.4 0 0 0-.8-.9l-.9-.5-.7-.6a2.3 2.3 0 0 1-.3-1.3 2.7 2.7 0 0 1 .3-1.2 6.7 6.7 0 0 1 .6-1.2c.3-.3.3-.6.7-.8a1.8 1.8 0 0 1 .8-.4v.8a4.7 4.7 0 0 0 .6 1.5c.1.5.6.7 1.2.7a1.5 1.5 0 0 0 1.1-.5 4.8 4.8 0 0 0 .9-1.1 11.1 11.1 0 0 0 .7-1.6c.1-.5.2.2.2-1.4H20.2a2.1 2.1 0 0 1-.9-.5l-1-.7a3.6 3.6 0 0 1-.9-.8 1.3 1.3 0 0 1-.4-1 4.4 4.4 0 0 1 1-3.2 8.8 8.8 0 0 1 2.7-1.9l3.2-1a17.1 17.1 0 0 0 2.9-.8l2.2-1 3.4-1.5 3.4-1.6c1-.5 1.7-1.1 2.2-1.1h13.7a7.3 7.3 0 0 1 3.9 1 15.4 15.4 0 0 1 3.2 2.5c.9 1.1 1.7 2.2 2.5 3.4l2.3 3.3a21 21 0 0 0 2.3 2.6 3.6 3.6 0 0 0 2.5 1c.4 0 .7-.1.8-.4a1 1 0 0 1 .9-.4 4 4 0 0 1 1.5.3l1.5.7 1.6.7a2.8 2.8 0 0 0 1.5.4l4.2-.2 4.1-.5 4.2-.5 4.1-.2a59 59 0 0 1 7.4.4 39.9 39.9 0 0 1 7.3 1.6 53.8 53.8 0 0 1 5.1 2l5.1 2.2a55.2 55.2 0 0 0 5.3 1.8 25.1 25.1 0 0 0 5.5.7h2.6l13-2.7c4.3-.9 8.6-1.6 13-2.3s8.6-1.2 13-1.6 8.8-.5 13.2-.5h9c1.8.1 3.6.7 5.1.9l36.7 7.3h11.8c-.8 0-1.8 1.1-3.1 1.4a14.6 14.6 0 0 1-4.2.1z"/></symbol></svg>